<svg  viewBox="0 0 1373 836" fill="none" xmlns="http://www.w3.org/2000/svg">
<path d="M349.5 735L348.825 733.175L347 732.5L348.825 731.825L349.5 730L350.175 731.825L352 732.5L350.175 733.175L349.5 735Z" fill="white" fill-opacity="0.7"/>
<path d="M1318.5 169L1319.18 170.825L1321 171.5L1319.18 172.175L1318.5 174L1317.82 172.175L1316 171.5L1317.82 170.825L1318.5 169Z" fill="white" fill-opacity="0.7"/>
<path d="M936.5 679L935.825 677.175L934 676.5L935.825 675.825L936.5 674L937.175 675.825L939 676.5L937.175 677.175L936.5 679Z" fill="white" fill-opacity="0.7"/>
<path d="M455.692 751.307L455.017 749.483L453.192 748.807L455.017 748.132L455.692 746.307L456.368 748.132L458.192 748.807L456.368 749.483L455.692 751.307Z" fill="white" fill-opacity="0.7"/>
<path d="M100.952 812.634L100.277 810.809L98.4521 810.134L100.277 809.459L100.952 807.634L101.627 809.459L103.452 810.134L101.627 810.809L100.952 812.634Z" fill="white" fill-opacity="0.7"/>
<path d="M1362.83 829.388L1362.16 827.563L1360.33 826.888L1362.16 826.212L1362.83 824.388L1363.51 826.212L1365.33 826.888L1363.51 827.563L1362.83 829.388Z" fill="white" fill-opacity="0.7"/>
<path d="M464.507 471.382L463.832 469.557L462.007 468.882L463.832 468.207L464.507 466.382L465.182 468.207L467.007 468.882L465.182 469.557L464.507 471.382Z" fill="white" fill-opacity="0.7"/>
<path d="M251.746 480.143L251.071 478.318L249.246 477.643L251.071 476.968L251.746 475.143L252.421 476.968L254.246 477.643L252.421 478.318L251.746 480.143Z" fill="white" fill-opacity="0.7"/>
<path d="M26.5 727L25.5547 724.445L23 723.5L25.5547 722.555L26.5 720L27.4453 722.555L30 723.5L27.4453 724.445L26.5 727Z" fill="white" fill-opacity="0.7"/>
<path d="M1322.5 555L1321.55 552.445L1319 551.5L1321.55 550.555L1322.5 548L1323.45 550.555L1326 551.5L1323.45 552.445L1322.5 555Z" fill="white" fill-opacity="0.7"/>
<path d="M916.5 829L915.555 826.445L913 825.5L915.555 824.555L916.5 822L917.445 824.555L920 825.5L917.445 826.445L916.5 829Z" fill="white" fill-opacity="0.7"/>
<path d="M228 548L226.92 545.08L224 544L226.92 542.92L228 540L229.08 542.92L232 544L229.08 545.08L228 548Z" fill="white" fill-opacity="0.5"/>
<path d="M1004.15 730.279L1003.07 727.36L1000.15 726.279L1003.07 725.199L1004.15 722.279L1005.23 725.199L1008.15 726.279L1005.23 727.36L1004.15 730.279Z" fill="white" fill-opacity="0.5"/>
<path d="M1196.92 607.301L1195.84 604.382L1192.92 603.301L1195.84 602.221L1196.92 599.301L1198 602.221L1200.92 603.301L1198 604.382L1196.92 607.301Z" fill="white" fill-opacity="0.5"/>
<path d="M408.206 505.45L407.126 502.531L404.206 501.45L407.126 500.37L408.206 497.45L409.286 500.37L412.206 501.45L409.286 502.531L408.206 505.45Z" fill="white" fill-opacity="0.5"/>
<path d="M1078.08 468.823L1077 465.903L1074.08 464.823L1077 463.742L1078.08 460.823L1079.16 463.742L1082.08 464.823L1079.16 465.903L1078.08 468.823Z" fill="white" fill-opacity="0.5"/>
<path d="M232 105L230.65 101.35L227 100L230.65 98.6495L232 95L233.35 98.6495L237 100L233.35 101.35L232 105Z" fill="white" fill-opacity="0.9"/>
<path d="M346.711 835.659L345.36 832.009L341.711 830.659L345.36 829.308L346.711 825.659L348.061 829.308L351.711 830.659L348.061 832.009L346.711 835.659Z" fill="white" fill-opacity="0.9"/>
<path d="M730.347 641.679L729.806 640.219L728.347 639.679L729.806 639.139L730.347 637.679L730.887 639.139L732.347 639.679L730.887 640.219L730.347 641.679Z" fill="white" fill-opacity="0.9"/>
<path d="M1129.96 792.021L1129.42 790.561L1127.96 790.021L1129.42 789.481L1129.96 788.021L1130.5 789.481L1131.96 790.021L1130.5 790.561L1129.96 792.021Z" fill="white" fill-opacity="0.9"/>
<path d="M535.276 392.014L534.736 390.554L533.276 390.014L534.736 389.474L535.276 388.014L535.817 389.474L537.276 390.014L535.817 390.554L535.276 392.014Z" fill="white" fill-opacity="0.9"/>
<path d="M690 751L689.46 749.54L688 749L689.46 748.46L690 747L690.54 748.46L692 749L690.54 749.54L690 751Z" fill="white" fill-opacity="0.9"/>
<path d="M281.963 655.988L281.423 654.528L279.963 653.988L281.423 653.447L281.963 651.988L282.503 653.447L283.963 653.988L282.503 654.528L281.963 655.988Z" fill="white" fill-opacity="0.9"/>
<path d="M1025.39 363.787L1024.85 362.327L1023.39 361.787L1024.85 361.247L1025.39 359.787L1025.93 361.247L1027.39 361.787L1025.93 362.327L1025.39 363.787Z" fill="white" fill-opacity="0.9"/>
<path d="M1283 717L1281.92 714.08L1279 713L1281.92 711.92L1283 709L1284.08 711.92L1287 713L1284.08 714.08L1283 717Z" fill="white" fill-opacity="0.5"/>
<path d="M599.5 23L600.175 24.8248L602 25.5L600.175 26.1752L599.5 28L598.825 26.1752L597 25.5L598.825 24.8248L599.5 23Z" fill="white" fill-opacity="0.7"/>
<path d="M1370.5 304L1369.82 302.175L1368 301.5L1369.82 300.825L1370.5 299L1371.18 300.825L1373 301.5L1371.18 302.175L1370.5 304Z" fill="white" fill-opacity="0.7"/>
<path d="M40.5 571L39.5547 568.445L37 567.5L39.5547 566.555L40.5 564L41.4453 566.555L44 567.5L41.4453 568.445L40.5 571Z" fill="white" fill-opacity="0.7"/>
<path d="M1022.78 120.223L1021.83 117.668L1019.28 116.723L1021.83 115.777L1022.78 113.223L1023.72 115.777L1026.28 116.723L1023.72 117.668L1022.78 120.223Z" fill="white" fill-opacity="0.7"/>
<path d="M1166.5 82L1165.55 79.4453L1163 78.5L1165.55 77.5547L1166.5 75L1167.45 77.5547L1170 78.5L1167.45 79.4453L1166.5 82Z" fill="white" fill-opacity="0.7"/>
<path d="M1156.5 389L1155.55 386.445L1153 385.5L1155.55 384.555L1156.5 382L1157.45 384.555L1160 385.5L1157.45 386.445L1156.5 389Z" fill="white" fill-opacity="0.7"/>
<path d="M1065.5 245L1064.55 242.445L1062 241.5L1064.55 240.555L1065.5 238L1066.45 240.555L1069 241.5L1066.45 242.445L1065.5 245Z" fill="white" fill-opacity="0.7"/>
<path d="M822.5 7L821.555 4.44532L819 3.5L821.555 2.55468L822.5 0L823.445 2.55468L826 3.5L823.445 4.44532L822.5 7Z" fill="white" fill-opacity="0.7"/>
<path d="M112 113L110.92 110.08L108 109L110.92 107.92L112 105L113.08 107.92L116 109L113.08 110.08L112 113Z" fill="white" fill-opacity="0.5"/>
<path d="M1338 452L1336.92 449.08L1334 448L1336.92 446.92L1338 444L1339.08 446.92L1342 448L1339.08 449.08L1338 452Z" fill="white" fill-opacity="0.5"/>
<path d="M99 323L97.6495 319.35L94 318L97.6495 316.65L99 313L100.35 316.65L104 318L100.35 319.35L99 323Z" fill="white" fill-opacity="0.9"/>
<path d="M475 179L473.65 175.35L470 174L473.65 172.65L475 169L476.35 172.65L480 174L476.35 175.35L475 179Z" fill="white" fill-opacity="0.9"/>
<path d="M205.881 174.223L204.53 170.573L200.881 169.223L204.53 167.872L205.881 164.223L207.231 167.872L210.881 169.223L207.231 170.573L205.881 174.223Z" fill="white" fill-opacity="0.9"/>
<path d="M1342 47L1340.65 43.3505L1337 42L1340.65 40.6495L1342 37L1343.35 40.6495L1347 42L1343.35 43.3505L1342 47Z" fill="white" fill-opacity="0.9"/>
<path d="M358.059 279.491L356.709 275.841L353.059 274.491L356.709 273.14L358.059 269.491L359.41 273.14L363.059 274.491L359.41 275.841L358.059 279.491Z" fill="white" fill-opacity="0.9"/>
<path d="M4 384L3.45982 382.54L2 382L3.45982 381.46L4 380L4.54018 381.46L6 382L4.54018 382.54L4 384Z" fill="white" fill-opacity="0.9"/>
<path d="M454 17L453.46 15.5402L452 15L453.46 14.4598L454 13L454.54 14.4598L456 15L454.54 15.5402L454 17Z" fill="white" fill-opacity="0.9"/>
<path d="M903 301L901.65 297.35L898 296L901.65 294.65L903 291L904.35 294.65L908 296L904.35 297.35L903 301Z" fill="white" fill-opacity="0.9"/>
<path d="M793 493L791.92 490.08L789 489L791.92 487.92L793 485L794.08 487.92L797 489L794.08 490.08L793 493Z" fill="white" fill-opacity="0.5"/>
<path d="M4 37L2.91964 34.0804L0 33L2.91964 31.9196L4 29L5.08036 31.9196L8 33L5.08036 34.0804L4 37Z" fill="white" fill-opacity="0.5"/>
</svg>
