<svg width="282" height="301" viewBox="0 0 282 301" fill="none" xmlns="http://www.w3.org/2000/svg">
<g opacity="0.8" filter="url(#filter0_f_1481_6268)">
<ellipse cx="152.467" cy="150.509" rx="49.8258" ry="50" fill="#7CB518"/>
</g>
<g filter="url(#filter1_biii_1481_6268)">
<path d="M146.413 50L173.328 122.991L246.065 150L173.328 177.009L146.413 250L119.498 177.009L46.7617 150L119.498 122.991L146.413 50Z" fill="#363636" fill-opacity="0.14"/>
</g>
<path d="M125.015 102.017C113.056 85.017 102.449 78.1834 93.4142 86.1834C82.4529 95.8891 189.578 224.183 198.048 215.683C205.522 208.183 196.598 181.183 190.286 171.017" stroke="#7CB518" stroke-width="4" stroke-dasharray="8 8"/>
<path d="M3.6 117.009V88.4493H21.64V93.4493H9.64V99.4093H12.04C14.7333 99.4093 16.9333 99.7826 18.64 100.529C20.3733 101.276 21.6533 102.303 22.48 103.609C23.3067 104.916 23.72 106.409 23.72 108.089C23.72 109.956 23.3067 111.556 22.48 112.889C21.6533 114.223 20.3733 115.249 18.64 115.969C16.9067 116.663 14.6667 117.009 11.92 117.009H3.6ZM11.68 112.049C13.52 112.049 14.96 111.756 16 111.169C17.0667 110.583 17.6 109.556 17.6 108.089C17.6 107.076 17.3333 106.303 16.8 105.769C16.2933 105.236 15.56 104.876 14.6 104.689C13.6667 104.476 12.5333 104.369 11.2 104.369H9.64V112.049H11.68ZM55.0278 102.689C55.0278 104.903 54.7478 106.916 54.1878 108.729C53.6545 110.516 52.8278 112.063 51.7078 113.369C50.6145 114.676 49.2011 115.676 47.4678 116.369C45.7611 117.063 43.7478 117.409 41.4278 117.409C39.1078 117.409 37.0811 117.063 35.3478 116.369C33.6411 115.649 32.2278 114.649 31.1078 113.369C30.0145 112.063 29.1878 110.503 28.6278 108.689C28.0945 106.876 27.8278 104.863 27.8278 102.649C27.8278 99.6893 28.3078 97.1159 29.2678 94.9293C30.2545 92.7426 31.7478 91.0493 33.7478 89.8493C35.7745 88.6226 38.3478 88.0093 41.4678 88.0093C44.5611 88.0093 47.1078 88.6226 49.1078 89.8493C51.1078 91.0493 52.5878 92.7559 53.5478 94.9693C54.5345 97.1559 55.0278 99.7293 55.0278 102.689ZM34.1878 102.689C34.1878 104.689 34.4411 106.409 34.9478 107.849C35.4545 109.289 36.2411 110.396 37.3078 111.169C38.3745 111.943 39.7478 112.329 41.4278 112.329C43.1611 112.329 44.5478 111.943 45.5878 111.169C46.6545 110.396 47.4278 109.289 47.9078 107.849C48.4145 106.409 48.6678 104.689 48.6678 102.689C48.6678 99.6759 48.1078 97.3159 46.9878 95.6093C45.8678 93.9026 44.0278 93.0493 41.4678 93.0493C39.7611 93.0493 38.3745 93.4359 37.3078 94.2093C36.2411 94.9826 35.4545 96.0893 34.9478 97.5293C34.4411 98.9693 34.1878 100.689 34.1878 102.689ZM73.0638 93.0893C71.9171 93.0893 70.8904 93.3159 69.9838 93.7693C69.1038 94.2226 68.3571 94.8759 67.7438 95.7293C67.1304 96.5559 66.6638 97.5693 66.3438 98.7693C66.0504 99.9693 65.9038 101.316 65.9038 102.809C65.9038 104.836 66.1438 106.569 66.6238 108.009C67.1304 109.423 67.9171 110.503 68.9838 111.249C70.0504 111.996 71.4104 112.369 73.0638 112.369C74.2371 112.369 75.3971 112.236 76.5438 111.969C77.7171 111.703 78.9838 111.329 80.3438 110.849V115.929C79.0904 116.436 77.8504 116.809 76.6238 117.049C75.3971 117.289 74.0238 117.409 72.5038 117.409C69.5704 117.409 67.1438 116.809 65.2238 115.609C63.3304 114.383 61.9304 112.676 61.0238 110.489C60.1171 108.276 59.6638 105.703 59.6638 102.769C59.6638 100.609 59.9571 98.6359 60.5438 96.8493C61.1304 95.0359 61.9838 93.4759 63.1038 92.1693C64.2504 90.8626 65.6504 89.8493 67.3038 89.1293C68.9838 88.4093 70.9038 88.0493 73.0638 88.0493C74.4771 88.0493 75.8904 88.2359 77.3038 88.6093C78.7438 88.9559 80.1171 89.4359 81.4238 90.0493L79.4638 94.9693C78.3971 94.4626 77.3171 94.0226 76.2238 93.6493C75.1571 93.2759 74.1038 93.0893 73.0638 93.0893ZM97.7513 93.0893C96.6046 93.0893 95.5779 93.3159 94.6713 93.7693C93.7913 94.2226 93.0446 94.8759 92.4313 95.7293C91.8179 96.5559 91.3513 97.5693 91.0313 98.7693C90.7379 99.9693 90.5913 101.316 90.5913 102.809C90.5913 104.836 90.8313 106.569 91.3113 108.009C91.8179 109.423 92.6046 110.503 93.6713 111.249C94.7379 111.996 96.0979 112.369 97.7513 112.369C98.9246 112.369 100.085 112.236 101.231 111.969C102.405 111.703 103.671 111.329 105.031 110.849V115.929C103.778 116.436 102.538 116.809 101.311 117.049C100.085 117.289 98.7113 117.409 97.1913 117.409C94.2579 117.409 91.8313 116.809 89.9113 115.609C88.0179 114.383 86.6179 112.676 85.7113 110.489C84.8046 108.276 84.3513 105.703 84.3513 102.769C84.3513 100.609 84.6446 98.6359 85.2313 96.8493C85.8179 95.0359 86.6713 93.4759 87.7913 92.1693C88.9379 90.8626 90.3379 89.8493 91.9913 89.1293C93.6713 88.4093 95.5913 88.0493 97.7513 88.0493C99.1646 88.0493 100.578 88.2359 101.991 88.6093C103.431 88.9559 104.805 89.4359 106.111 90.0493L104.151 94.9693C103.085 94.4626 102.005 94.0226 100.911 93.6493C99.8446 93.2759 98.7913 93.0893 97.7513 93.0893Z" fill="white"/>
<path d="M15.68 164.009L8.8 141.609H8.64C8.66667 142.143 8.70667 142.943 8.76 144.009C8.81333 145.076 8.86667 146.223 8.92 147.449C8.97333 148.649 9 149.743 9 150.729V164.009H3.6V135.449H11.84L18.6 157.289H18.72L25.88 135.449H34.12V164.009H28.48V150.489C28.48 149.583 28.4933 148.543 28.52 147.369C28.5733 146.196 28.6133 145.089 28.64 144.049C28.6933 142.983 28.7333 142.183 28.76 141.649H28.6L21.24 164.009H15.68ZM41.3344 135.449H46.7744V149.249C46.7744 149.916 46.761 150.663 46.7344 151.489C46.7077 152.316 46.681 153.129 46.6544 153.929C46.6277 154.703 46.601 155.383 46.5744 155.969C46.5477 156.529 46.521 156.916 46.4944 157.129H46.6144L59.8144 135.449H67.0544V164.009H61.6544V150.289C61.6544 149.569 61.6677 148.783 61.6944 147.929C61.721 147.049 61.7477 146.209 61.7744 145.409C61.8277 144.609 61.8677 143.916 61.8944 143.329C61.9477 142.716 61.9877 142.316 62.0144 142.129H61.8544L48.6144 164.009H41.3344V135.449ZM83.3841 135.449C87.0641 135.449 89.7441 136.249 91.4241 137.849C93.1307 139.423 93.9841 141.596 93.9841 144.369C93.9841 145.623 93.7974 146.823 93.4241 147.969C93.0507 149.089 92.4241 150.103 91.5441 151.009C90.6907 151.889 89.5574 152.583 88.1441 153.089C86.7307 153.596 84.9841 153.849 82.9041 153.849H80.3041V164.009H74.2641V135.449H83.3841ZM83.0641 140.409H80.3041V148.889H82.3041C83.4507 148.889 84.4374 148.743 85.2641 148.449C86.0907 148.156 86.7307 147.689 87.1841 147.049C87.6374 146.409 87.8641 145.583 87.8641 144.569C87.8641 143.156 87.4774 142.116 86.7041 141.449C85.9307 140.756 84.7174 140.409 83.0641 140.409ZM114.869 164.009L112.789 157.209H102.389L100.309 164.009H93.7891L103.869 135.329H111.269L121.389 164.009H114.869ZM109.269 145.489C109.136 145.036 108.962 144.463 108.749 143.769C108.536 143.076 108.322 142.369 108.109 141.649C107.896 140.929 107.722 140.303 107.589 139.769C107.456 140.303 107.269 140.969 107.029 141.769C106.816 142.543 106.602 143.289 106.389 144.009C106.202 144.703 106.056 145.196 105.949 145.489L103.909 152.129H111.349L109.269 145.489Z" fill="white"/>
<path d="M27 211.009H20.96V198.689H9.64V211.009H3.6V182.449H9.64V193.649H20.96V182.449H27V211.009ZM60.1059 196.689C60.1059 198.903 59.8259 200.916 59.2659 202.729C58.7326 204.516 57.9059 206.063 56.7859 207.369C55.6926 208.676 54.2793 209.676 52.5459 210.369C50.8393 211.063 48.8259 211.409 46.5059 211.409C44.1859 211.409 42.1593 211.063 40.4259 210.369C38.7193 209.649 37.3059 208.649 36.1859 207.369C35.0926 206.063 34.2659 204.503 33.7059 202.689C33.1726 200.876 32.9059 198.863 32.9059 196.649C32.9059 193.689 33.3859 191.116 34.3459 188.929C35.3326 186.743 36.8259 185.049 38.8259 183.849C40.8526 182.623 43.4259 182.009 46.5459 182.009C49.6393 182.009 52.1859 182.623 54.1859 183.849C56.1859 185.049 57.6659 186.756 58.6259 188.969C59.6126 191.156 60.1059 193.729 60.1059 196.689ZM39.2659 196.689C39.2659 198.689 39.5193 200.409 40.0259 201.849C40.5326 203.289 41.3193 204.396 42.3859 205.169C43.4526 205.943 44.8259 206.329 46.5059 206.329C48.2393 206.329 49.6259 205.943 50.6659 205.169C51.7326 204.396 52.5059 203.289 52.9859 201.849C53.4926 200.409 53.7459 198.689 53.7459 196.689C53.7459 193.676 53.1859 191.316 52.0659 189.609C50.9459 187.903 49.1059 187.049 46.5459 187.049C44.8393 187.049 43.4526 187.436 42.3859 188.209C41.3193 188.983 40.5326 190.089 40.0259 191.529C39.5193 192.969 39.2659 194.689 39.2659 196.689ZM75.1419 182.449C78.8219 182.449 81.5019 183.249 83.1819 184.849C84.8885 186.423 85.7419 188.596 85.7419 191.369C85.7419 192.623 85.5552 193.823 85.1819 194.969C84.8085 196.089 84.1819 197.103 83.3019 198.009C82.4485 198.889 81.3152 199.583 79.9019 200.089C78.4885 200.596 76.7419 200.849 74.6619 200.849H72.0619V211.009H66.0219V182.449H75.1419ZM74.8219 187.409H72.0619V195.889H74.0619C75.2085 195.889 76.1952 195.743 77.0219 195.449C77.8485 195.156 78.4885 194.689 78.9419 194.049C79.3952 193.409 79.6219 192.583 79.6219 191.569C79.6219 190.156 79.2352 189.116 78.4619 188.449C77.6885 187.756 76.4752 187.409 74.8219 187.409ZM103.219 211.009L96.3391 188.609H96.1791C96.2057 189.143 96.2457 189.943 96.2991 191.009C96.3524 192.076 96.4057 193.223 96.4591 194.449C96.5124 195.649 96.5391 196.743 96.5391 197.729V211.009H91.1391V182.449H99.3791L106.139 204.289H106.259L113.419 182.449H121.659V211.009H116.019V197.489C116.019 196.583 116.032 195.543 116.059 194.369C116.112 193.196 116.152 192.089 116.179 191.049C116.232 189.983 116.272 189.183 116.299 188.649H116.139L108.779 211.009H103.219Z" fill="white"/>
<defs>
<filter id="filter0_f_1481_6268" x="2.64111" y="0.508789" width="299.651" height="300" filterUnits="userSpaceOnUse" color-interpolation-filters="sRGB">
<feFlood flood-opacity="0" result="BackgroundImageFix"/>
<feBlend mode="normal" in="SourceGraphic" in2="BackgroundImageFix" result="shape"/>
<feGaussianBlur stdDeviation="50" result="effect1_foregroundBlur_1481_6268"/>
</filter>
<filter id="filter1_biii_1481_6268" x="-94.7383" y="-91.5" width="482.303" height="483" filterUnits="userSpaceOnUse" color-interpolation-filters="sRGB">
<feFlood flood-opacity="0" result="BackgroundImageFix"/>
<feGaussianBlur in="BackgroundImageFix" stdDeviation="70.75"/>
<feComposite in2="SourceAlpha" operator="in" result="effect1_backgroundBlur_1481_6268"/>
<feBlend mode="normal" in="SourceGraphic" in2="effect1_backgroundBlur_1481_6268" result="shape"/>
<feColorMatrix in="SourceAlpha" type="matrix" values="0 0 0 0 0 0 0 0 0 0 0 0 0 0 0 0 0 0 127 0" result="hardAlpha"/>
<feOffset/>
<feGaussianBlur stdDeviation="9.16071"/>
<feComposite in2="hardAlpha" operator="arithmetic" k2="-1" k3="1"/>
<feColorMatrix type="matrix" values="0 0 0 0 1 0 0 0 0 1 0 0 0 0 1 0 0 0 0.08 0"/>
<feBlend mode="normal" in2="shape" result="effect2_innerShadow_1481_6268"/>
<feColorMatrix in="SourceAlpha" type="matrix" values="0 0 0 0 0 0 0 0 0 0 0 0 0 0 0 0 0 0 127 0" result="hardAlpha"/>
<feOffset dy="24"/>
<feGaussianBlur stdDeviation="12.2143"/>
<feComposite in2="hardAlpha" operator="arithmetic" k2="-1" k3="1"/>
<feColorMatrix type="matrix" values="0 0 0 0 1 0 0 0 0 1 0 0 0 0 1 0 0 0 0.1 0"/>
<feBlend mode="normal" in2="effect2_innerShadow_1481_6268" result="effect3_innerShadow_1481_6268"/>
<feColorMatrix in="SourceAlpha" type="matrix" values="0 0 0 0 0 0 0 0 0 0 0 0 0 0 0 0 0 0 127 0" result="hardAlpha"/>
<feOffset dy="5.89"/>
<feGaussianBlur stdDeviation="3.05357"/>
<feComposite in2="hardAlpha" operator="arithmetic" k2="-1" k3="1"/>
<feColorMatrix type="matrix" values="0 0 0 0 1 0 0 0 0 1 0 0 0 0 1 0 0 0 0.15 0"/>
<feBlend mode="normal" in2="effect3_innerShadow_1481_6268" result="effect4_innerShadow_1481_6268"/>
</filter>
</defs>
</svg>
