<svg width="303" height="301" viewBox="0 0 303 301" fill="none" xmlns="http://www.w3.org/2000/svg">
<g opacity="0.8" filter="url(#filter0_f_1481_6405)">
<ellipse cx="152.467" cy="150.509" rx="49.8258" ry="50" fill="#F96108"/>
</g>
<g filter="url(#filter1_biii_1481_6405)">
<path d="M146.413 50L173.328 122.991L246.065 150L173.328 177.009L146.413 250L119.498 177.009L46.7617 150L119.498 122.991L146.413 50Z" fill="#363636" fill-opacity="0.14"/>
</g>
<path d="M125.015 102.017C113.056 85.017 102.449 78.1834 93.4142 86.1834C82.4529 95.8891 189.578 224.183 198.048 215.683C205.522 208.183 196.598 181.183 190.286 171.017" stroke="#F96108" stroke-width="4" stroke-dasharray="8 8"/>
<path d="M3.6 117.009V88.4493H21.64V93.4493H9.64V99.4093H12.04C14.7333 99.4093 16.9333 99.7826 18.64 100.529C20.3733 101.276 21.6533 102.303 22.48 103.609C23.3067 104.916 23.72 106.409 23.72 108.089C23.72 109.956 23.3067 111.556 22.48 112.889C21.6533 114.223 20.3733 115.249 18.64 115.969C16.9067 116.663 14.6667 117.009 11.92 117.009H3.6ZM11.68 112.049C13.52 112.049 14.96 111.756 16 111.169C17.0667 110.583 17.6 109.556 17.6 108.089C17.6 107.076 17.3333 106.303 16.8 105.769C16.2933 105.236 15.56 104.876 14.6 104.689C13.6667 104.476 12.5333 104.369 11.2 104.369H9.64V112.049H11.68ZM55.0278 102.689C55.0278 104.903 54.7478 106.916 54.1878 108.729C53.6545 110.516 52.8278 112.063 51.7078 113.369C50.6145 114.676 49.2011 115.676 47.4678 116.369C45.7611 117.063 43.7478 117.409 41.4278 117.409C39.1078 117.409 37.0811 117.063 35.3478 116.369C33.6411 115.649 32.2278 114.649 31.1078 113.369C30.0145 112.063 29.1878 110.503 28.6278 108.689C28.0945 106.876 27.8278 104.863 27.8278 102.649C27.8278 99.6893 28.3078 97.1159 29.2678 94.9293C30.2545 92.7426 31.7478 91.0493 33.7478 89.8493C35.7745 88.6226 38.3478 88.0093 41.4678 88.0093C44.5611 88.0093 47.1078 88.6226 49.1078 89.8493C51.1078 91.0493 52.5878 92.7559 53.5478 94.9693C54.5345 97.1559 55.0278 99.7293 55.0278 102.689ZM34.1878 102.689C34.1878 104.689 34.4411 106.409 34.9478 107.849C35.4545 109.289 36.2411 110.396 37.3078 111.169C38.3745 111.943 39.7478 112.329 41.4278 112.329C43.1611 112.329 44.5478 111.943 45.5878 111.169C46.6545 110.396 47.4278 109.289 47.9078 107.849C48.4145 106.409 48.6678 104.689 48.6678 102.689C48.6678 99.6759 48.1078 97.3159 46.9878 95.6093C45.8678 93.9026 44.0278 93.0493 41.4678 93.0493C39.7611 93.0493 38.3745 93.4359 37.3078 94.2093C36.2411 94.9826 35.4545 96.0893 34.9478 97.5293C34.4411 98.9693 34.1878 100.689 34.1878 102.689ZM73.0638 93.0893C71.9171 93.0893 70.8904 93.3159 69.9838 93.7693C69.1038 94.2226 68.3571 94.8759 67.7438 95.7293C67.1304 96.5559 66.6638 97.5693 66.3438 98.7693C66.0504 99.9693 65.9038 101.316 65.9038 102.809C65.9038 104.836 66.1438 106.569 66.6238 108.009C67.1304 109.423 67.9171 110.503 68.9838 111.249C70.0504 111.996 71.4104 112.369 73.0638 112.369C74.2371 112.369 75.3971 112.236 76.5438 111.969C77.7171 111.703 78.9838 111.329 80.3438 110.849V115.929C79.0904 116.436 77.8504 116.809 76.6238 117.049C75.3971 117.289 74.0238 117.409 72.5038 117.409C69.5704 117.409 67.1438 116.809 65.2238 115.609C63.3304 114.383 61.9304 112.676 61.0238 110.489C60.1171 108.276 59.6638 105.703 59.6638 102.769C59.6638 100.609 59.9571 98.6359 60.5438 96.8493C61.1304 95.0359 61.9838 93.4759 63.1038 92.1693C64.2504 90.8626 65.6504 89.8493 67.3038 89.1293C68.9838 88.4093 70.9038 88.0493 73.0638 88.0493C74.4771 88.0493 75.8904 88.2359 77.3038 88.6093C78.7438 88.9559 80.1171 89.4359 81.4238 90.0493L79.4638 94.9693C78.3971 94.4626 77.3171 94.0226 76.2238 93.6493C75.1571 93.2759 74.1038 93.0893 73.0638 93.0893ZM97.7513 93.0893C96.6046 93.0893 95.5779 93.3159 94.6713 93.7693C93.7913 94.2226 93.0446 94.8759 92.4313 95.7293C91.8179 96.5559 91.3513 97.5693 91.0313 98.7693C90.7379 99.9693 90.5913 101.316 90.5913 102.809C90.5913 104.836 90.8313 106.569 91.3113 108.009C91.8179 109.423 92.6046 110.503 93.6713 111.249C94.7379 111.996 96.0979 112.369 97.7513 112.369C98.9246 112.369 100.085 112.236 101.231 111.969C102.405 111.703 103.671 111.329 105.031 110.849V115.929C103.778 116.436 102.538 116.809 101.311 117.049C100.085 117.289 98.7113 117.409 97.1913 117.409C94.2579 117.409 91.8313 116.809 89.9113 115.609C88.0179 114.383 86.6179 112.676 85.7113 110.489C84.8046 108.276 84.3513 105.703 84.3513 102.769C84.3513 100.609 84.6446 98.6359 85.2313 96.8493C85.8179 95.0359 86.6713 93.4759 87.7913 92.1693C88.9379 90.8626 90.3379 89.8493 91.9913 89.1293C93.6713 88.4093 95.5913 88.0493 97.7513 88.0493C99.1646 88.0493 100.578 88.2359 101.991 88.6093C103.431 88.9559 104.805 89.4359 106.111 90.0493L104.151 94.9693C103.085 94.4626 102.005 94.0226 100.911 93.6493C99.8446 93.2759 98.7913 93.0893 97.7513 93.0893Z" fill="white"/>
<path d="M15.68 164.009L8.8 141.609H8.64C8.66667 142.143 8.70667 142.943 8.76 144.009C8.81333 145.076 8.86667 146.223 8.92 147.449C8.97333 148.649 9 149.743 9 150.729V164.009H3.6V135.449H11.84L18.6 157.289H18.72L25.88 135.449H34.12V164.009H28.48V150.489C28.48 149.583 28.4933 148.543 28.52 147.369C28.5733 146.196 28.6133 145.089 28.64 144.049C28.6933 142.983 28.7333 142.183 28.76 141.649H28.6L21.24 164.009H15.68ZM41.3344 135.449H46.7744V149.249C46.7744 149.916 46.761 150.663 46.7344 151.489C46.7077 152.316 46.681 153.129 46.6544 153.929C46.6277 154.703 46.601 155.383 46.5744 155.969C46.5477 156.529 46.521 156.916 46.4944 157.129H46.6144L59.8144 135.449H67.0544V164.009H61.6544V150.289C61.6544 149.569 61.6677 148.783 61.6944 147.929C61.721 147.049 61.7477 146.209 61.7744 145.409C61.8277 144.609 61.8677 143.916 61.8944 143.329C61.9477 142.716 61.9877 142.316 62.0144 142.129H61.8544L48.6144 164.009H41.3344V135.449ZM83.3841 135.449C87.0641 135.449 89.7441 136.249 91.4241 137.849C93.1307 139.423 93.9841 141.596 93.9841 144.369C93.9841 145.623 93.7974 146.823 93.4241 147.969C93.0507 149.089 92.4241 150.103 91.5441 151.009C90.6907 151.889 89.5574 152.583 88.1441 153.089C86.7307 153.596 84.9841 153.849 82.9041 153.849H80.3041V164.009H74.2641V135.449H83.3841ZM83.0641 140.409H80.3041V148.889H82.3041C83.4507 148.889 84.4374 148.743 85.2641 148.449C86.0907 148.156 86.7307 147.689 87.1841 147.049C87.6374 146.409 87.8641 145.583 87.8641 144.569C87.8641 143.156 87.4774 142.116 86.7041 141.449C85.9307 140.756 84.7174 140.409 83.0641 140.409ZM114.869 164.009L112.789 157.209H102.389L100.309 164.009H93.7891L103.869 135.329H111.269L121.389 164.009H114.869ZM109.269 145.489C109.136 145.036 108.962 144.463 108.749 143.769C108.536 143.076 108.322 142.369 108.109 141.649C107.896 140.929 107.722 140.303 107.589 139.769C107.456 140.303 107.269 140.969 107.029 141.769C106.816 142.543 106.602 143.289 106.389 144.009C106.202 144.703 106.056 145.196 105.949 145.489L103.909 152.129H111.349L109.269 145.489Z" fill="white"/>
<path d="M29.52 196.689C29.52 198.903 29.24 200.916 28.68 202.729C28.1467 204.516 27.32 206.063 26.2 207.369C25.1067 208.676 23.6933 209.676 21.96 210.369C20.2533 211.063 18.24 211.409 15.92 211.409C13.6 211.409 11.5733 211.063 9.84 210.369C8.13333 209.649 6.72 208.649 5.6 207.369C4.50667 206.063 3.68 204.503 3.12 202.689C2.58667 200.876 2.32 198.863 2.32 196.649C2.32 193.689 2.8 191.116 3.76 188.929C4.74667 186.743 6.24 185.049 8.24 183.849C10.2667 182.623 12.84 182.009 15.96 182.009C19.0533 182.009 21.6 182.623 23.6 183.849C25.6 185.049 27.08 186.756 28.04 188.969C29.0267 191.156 29.52 193.729 29.52 196.689ZM8.68 196.689C8.68 198.689 8.93333 200.409 9.44 201.849C9.94667 203.289 10.7333 204.396 11.8 205.169C12.8667 205.943 14.24 206.329 15.92 206.329C17.6533 206.329 19.04 205.943 20.08 205.169C21.1467 204.396 21.92 203.289 22.4 201.849C22.9067 200.409 23.16 198.689 23.16 196.689C23.16 193.676 22.6 191.316 21.48 189.609C20.36 187.903 18.52 187.049 15.96 187.049C14.2533 187.049 12.8667 187.436 11.8 188.209C10.7333 188.983 9.94667 190.089 9.44 191.529C8.93333 192.969 8.68 194.689 8.68 196.689ZM44.5559 182.449C48.2359 182.449 50.9159 183.249 52.5959 184.849C54.3026 186.423 55.1559 188.596 55.1559 191.369C55.1559 192.623 54.9693 193.823 54.5959 194.969C54.2226 196.089 53.5959 197.103 52.7159 198.009C51.8626 198.889 50.7293 199.583 49.3159 200.089C47.9026 200.596 46.1559 200.849 44.0759 200.849H41.4759V211.009H35.4359V182.449H44.5559ZM44.2359 187.409H41.4759V195.889H43.4759C44.6226 195.889 45.6093 195.743 46.4359 195.449C47.2626 195.156 47.9026 194.689 48.3559 194.049C48.8093 193.409 49.0359 192.583 49.0359 191.569C49.0359 190.156 48.6493 189.116 47.8759 188.449C47.1026 187.756 45.8893 187.409 44.2359 187.409ZM76.8731 182.049V185.569C79.9931 185.649 82.4731 186.196 84.3131 187.209C86.1798 188.196 87.5131 189.476 88.3131 191.049C89.1398 192.623 89.5531 194.343 89.5531 196.209C89.5531 197.409 89.3398 198.636 88.9131 199.889C88.5131 201.143 87.8198 202.303 86.8331 203.369C85.8731 204.409 84.5798 205.263 82.9531 205.929C81.3265 206.596 79.2998 206.956 76.8731 207.009V211.409H71.4331V207.009C68.9798 206.956 66.9265 206.596 65.2731 205.929C63.6465 205.263 62.3531 204.396 61.3931 203.329C60.4331 202.263 59.7531 201.116 59.3531 199.889C58.9531 198.636 58.7531 197.409 58.7531 196.209C58.7531 194.823 58.9798 193.503 59.4331 192.249C59.8865 190.996 60.6065 189.876 61.5931 188.889C62.5798 187.903 63.8865 187.116 65.5131 186.529C67.1398 185.943 69.1131 185.623 71.4331 185.569V182.049H76.8731ZM71.4331 190.289C69.6998 190.369 68.3131 190.676 67.2731 191.209C66.2598 191.716 65.5265 192.396 65.0731 193.249C64.6465 194.103 64.4331 195.076 64.4331 196.169C64.4331 197.369 64.6731 198.423 65.1531 199.329C65.6598 200.209 66.4198 200.916 67.4331 201.449C68.4731 201.956 69.8065 202.249 71.4331 202.329V190.289ZM76.8731 202.329C78.4998 202.249 79.8198 201.956 80.8331 201.449C81.8731 200.916 82.6331 200.209 83.1131 199.329C83.6198 198.423 83.8731 197.369 83.8731 196.169C83.8731 195.076 83.6465 194.103 83.1931 193.249C82.7665 192.396 82.0331 191.716 80.9931 191.209C79.9798 190.676 78.6065 190.369 76.8731 190.289V202.329ZM120.887 196.689C120.887 198.903 120.607 200.916 120.047 202.729C119.514 204.516 118.687 206.063 117.567 207.369C116.474 208.676 115.061 209.676 113.327 210.369C111.621 211.063 109.607 211.409 107.287 211.409C104.967 211.409 102.941 211.063 101.207 210.369C99.5005 209.649 98.0872 208.649 96.9672 207.369C95.8739 206.063 95.0472 204.503 94.4872 202.689C93.9539 200.876 93.6872 198.863 93.6872 196.649C93.6872 193.689 94.1672 191.116 95.1272 188.929C96.1139 186.743 97.6072 185.049 99.6072 183.849C101.634 182.623 104.207 182.009 107.327 182.009C110.421 182.009 112.967 182.623 114.967 183.849C116.967 185.049 118.447 186.756 119.407 188.969C120.394 191.156 120.887 193.729 120.887 196.689ZM100.047 196.689C100.047 198.689 100.301 200.409 100.807 201.849C101.314 203.289 102.101 204.396 103.167 205.169C104.234 205.943 105.607 206.329 107.287 206.329C109.021 206.329 110.407 205.943 111.447 205.169C112.514 204.396 113.287 203.289 113.767 201.849C114.274 200.409 114.527 198.689 114.527 196.689C114.527 193.676 113.967 191.316 112.847 189.609C111.727 187.903 109.887 187.049 107.327 187.049C105.621 187.049 104.234 187.436 103.167 188.209C102.101 188.983 101.314 190.089 100.807 191.529C100.301 192.969 100.047 194.689 100.047 196.689ZM144.843 182.449V187.449H132.843V211.009H126.803V182.449H144.843ZM158.345 182.449C162.025 182.449 164.705 183.249 166.385 184.849C168.092 186.423 168.945 188.596 168.945 191.369C168.945 192.623 168.758 193.823 168.385 194.969C168.012 196.089 167.385 197.103 166.505 198.009C165.652 198.889 164.518 199.583 163.105 200.089C161.692 200.596 159.945 200.849 157.865 200.849H155.265V211.009H149.225V182.449H158.345ZM158.025 187.409H155.265V195.889H157.265C158.412 195.889 159.398 195.743 160.225 195.449C161.052 195.156 161.692 194.689 162.145 194.049C162.598 193.409 162.825 192.583 162.825 191.569C162.825 190.156 162.438 189.116 161.665 188.449C160.892 187.756 159.678 187.409 158.025 187.409ZM189.83 211.009L187.75 204.209H177.35L175.27 211.009H168.75L178.83 182.329H186.23L196.35 211.009H189.83ZM184.23 192.489C184.097 192.036 183.923 191.463 183.71 190.769C183.497 190.076 183.283 189.369 183.07 188.649C182.857 187.929 182.683 187.303 182.55 186.769C182.417 187.303 182.23 187.969 181.99 188.769C181.777 189.543 181.563 190.289 181.35 191.009C181.163 191.703 181.017 192.196 180.91 192.489L178.87 199.129H186.31L184.23 192.489ZM216.287 182.049V185.569C219.407 185.649 221.887 186.196 223.727 187.209C225.594 188.196 226.927 189.476 227.727 191.049C228.554 192.623 228.967 194.343 228.967 196.209C228.967 197.409 228.754 198.636 228.327 199.889C227.927 201.143 227.234 202.303 226.247 203.369C225.287 204.409 223.994 205.263 222.367 205.929C220.741 206.596 218.714 206.956 216.287 207.009V211.409H210.847V207.009C208.394 206.956 206.341 206.596 204.687 205.929C203.061 205.263 201.767 204.396 200.807 203.329C199.847 202.263 199.167 201.116 198.767 199.889C198.367 198.636 198.167 197.409 198.167 196.209C198.167 194.823 198.394 193.503 198.847 192.249C199.301 190.996 200.021 189.876 201.007 188.889C201.994 187.903 203.301 187.116 204.927 186.529C206.554 185.943 208.527 185.623 210.847 185.569V182.049H216.287ZM210.847 190.289C209.114 190.369 207.727 190.676 206.687 191.209C205.674 191.716 204.941 192.396 204.487 193.249C204.061 194.103 203.847 195.076 203.847 196.169C203.847 197.369 204.087 198.423 204.567 199.329C205.074 200.209 205.834 200.916 206.847 201.449C207.887 201.956 209.221 202.249 210.847 202.329V190.289ZM216.287 202.329C217.914 202.249 219.234 201.956 220.247 201.449C221.287 200.916 222.047 200.209 222.527 199.329C223.034 198.423 223.287 197.369 223.287 196.169C223.287 195.076 223.061 194.103 222.607 193.249C222.181 192.396 221.447 191.716 220.407 191.209C219.394 190.676 218.021 190.369 216.287 190.289V202.329ZM234.381 182.449H239.821V196.249C239.821 196.916 239.808 197.663 239.781 198.489C239.755 199.316 239.728 200.129 239.701 200.929C239.675 201.703 239.648 202.383 239.621 202.969C239.595 203.529 239.568 203.916 239.541 204.129H239.661L252.861 182.449H260.101V211.009H254.701V197.289C254.701 196.569 254.715 195.783 254.741 194.929C254.768 194.049 254.795 193.209 254.821 192.409C254.875 191.609 254.915 190.916 254.941 190.329C254.995 189.716 255.035 189.316 255.061 189.129H254.901L241.661 211.009H234.381V182.449ZM267.311 182.449H272.751V196.249C272.751 196.916 272.738 197.663 272.711 198.489C272.684 199.316 272.658 200.129 272.631 200.929C272.604 201.703 272.578 202.383 272.551 202.969C272.524 203.529 272.498 203.916 272.471 204.129H272.591L285.791 182.449H293.031V211.009H287.631V197.289C287.631 196.569 287.644 195.783 287.671 194.929C287.698 194.049 287.724 193.209 287.751 192.409C287.804 191.609 287.844 190.916 287.871 190.329C287.924 189.716 287.964 189.316 287.991 189.129H287.831L274.591 211.009H267.311V182.449Z" fill="white"/>
<defs>
<filter id="filter0_f_1481_6405" x="2.64111" y="0.508789" width="299.651" height="300" filterUnits="userSpaceOnUse" color-interpolation-filters="sRGB">
<feFlood flood-opacity="0" result="BackgroundImageFix"/>
<feBlend mode="normal" in="SourceGraphic" in2="BackgroundImageFix" result="shape"/>
<feGaussianBlur stdDeviation="50" result="effect1_foregroundBlur_1481_6405"/>
</filter>
<filter id="filter1_biii_1481_6405" x="-94.7383" y="-91.5" width="482.303" height="483" filterUnits="userSpaceOnUse" color-interpolation-filters="sRGB">
<feFlood flood-opacity="0" result="BackgroundImageFix"/>
<feGaussianBlur in="BackgroundImageFix" stdDeviation="70.75"/>
<feComposite in2="SourceAlpha" operator="in" result="effect1_backgroundBlur_1481_6405"/>
<feBlend mode="normal" in="SourceGraphic" in2="effect1_backgroundBlur_1481_6405" result="shape"/>
<feColorMatrix in="SourceAlpha" type="matrix" values="0 0 0 0 0 0 0 0 0 0 0 0 0 0 0 0 0 0 127 0" result="hardAlpha"/>
<feOffset/>
<feGaussianBlur stdDeviation="9.16071"/>
<feComposite in2="hardAlpha" operator="arithmetic" k2="-1" k3="1"/>
<feColorMatrix type="matrix" values="0 0 0 0 1 0 0 0 0 1 0 0 0 0 1 0 0 0 0.08 0"/>
<feBlend mode="normal" in2="shape" result="effect2_innerShadow_1481_6405"/>
<feColorMatrix in="SourceAlpha" type="matrix" values="0 0 0 0 0 0 0 0 0 0 0 0 0 0 0 0 0 0 127 0" result="hardAlpha"/>
<feOffset dy="24"/>
<feGaussianBlur stdDeviation="12.2143"/>
<feComposite in2="hardAlpha" operator="arithmetic" k2="-1" k3="1"/>
<feColorMatrix type="matrix" values="0 0 0 0 1 0 0 0 0 1 0 0 0 0 1 0 0 0 0.1 0"/>
<feBlend mode="normal" in2="effect2_innerShadow_1481_6405" result="effect3_innerShadow_1481_6405"/>
<feColorMatrix in="SourceAlpha" type="matrix" values="0 0 0 0 0 0 0 0 0 0 0 0 0 0 0 0 0 0 127 0" result="hardAlpha"/>
<feOffset dy="5.89"/>
<feGaussianBlur stdDeviation="3.05357"/>
<feComposite in2="hardAlpha" operator="arithmetic" k2="-1" k3="1"/>
<feColorMatrix type="matrix" values="0 0 0 0 1 0 0 0 0 1 0 0 0 0 1 0 0 0 0.15 0"/>
<feBlend mode="normal" in2="effect3_innerShadow_1481_6405" result="effect4_innerShadow_1481_6405"/>
</filter>
</defs>
</svg>
