<svg  viewBox="0 0 40 40" fill="none" xmlns="http://www.w3.org/2000/svg">
<g id="Group 89">
<rect id="Rectangle 12"  rx="8" fill="#605DE3" fill-opacity="0.2"/>
<g id="Group 2">
<path id="Ellipse 1" d="M25.8051 24.0246C23.5148 26.7658 21.213 27.7672 19.5132 28.099C18.6587 28.2658 17.9468 28.2651 17.4532 28.2241C17.2065 28.2035 17.0146 28.173 16.8873 28.1483C16.8405 28.1393 16.8024 28.131 16.7737 28.1244L13.1617 25.6447C11.9728 24.7172 11.4397 23.1442 11.62 21.2722C11.8004 19.3986 12.6962 17.2789 14.2867 15.3752C15.8772 13.4716 17.8357 12.1752 19.6975 11.6043C21.5515 11.0358 23.2559 11.1974 24.4507 12.1089L28.3586 16.0468C28.3611 16.0612 28.3637 16.0769 28.3665 16.0939C28.3845 16.2054 28.4071 16.3729 28.4238 16.5888C28.4572 17.0208 28.4667 17.6451 28.3681 18.4005C28.1713 19.9089 27.5434 21.944 25.8051 24.0246Z" fill="#F3DE2C" stroke="#1E1E1E" stroke-width="0.887076"/>
<path id="Ellipse 2" d="M23.3567 22.403C21.7662 24.3067 19.8077 25.6031 17.9458 26.174C16.0804 26.746 14.3664 26.5788 13.1705 25.6523C11.9747 24.7259 11.4382 23.1494 11.619 21.2722C11.7995 19.3986 12.6952 17.2789 14.2857 15.3752C15.8762 13.4716 17.8347 12.1752 19.6966 11.6043C21.562 11.0323 23.276 11.1995 24.4719 12.1259C25.6677 13.0524 26.2042 14.6289 26.0234 16.506C25.8429 18.3796 24.9472 20.4994 23.3567 22.403Z" fill="#F3DE2C" stroke="#1E1E1E" stroke-width="0.887076"/>
<rect id="Rectangle 2" x="0.06343" y="0.612292" width="1.99854" height="1.97629" rx="0.496387" transform="matrix(0.787714 0.616041 -0.644705 0.764432 20.2232 15.4417)" fill="#605DE3" stroke="#1E1E1E" stroke-width="0.887076"/>
<rect id="Rectangle 4" x="0.06343" y="0.612292" width="1.99854" height="1.97629" rx="0.496387" transform="matrix(0.787714 0.616041 -0.644705 0.764432 17.7622 18.3603)" fill="#FB0707" stroke="#1E1E1E" stroke-width="0.887076"/>
<g id="Rectangle 3">
<rect x="0.06343" y="0.612292" width="1.99854" height="1.97629" rx="0.496387" transform="matrix(0.787714 0.616041 -0.644705 0.764432 17.4766 15.7159)" fill="#605DE3"/>
<rect x="0.06343" y="0.612292" width="1.99854" height="1.97629" rx="0.496387" transform="matrix(0.787714 0.616041 -0.644705 0.764432 17.4766 15.7159)" fill="#D1FFAC"/>
<rect x="0.06343" y="0.612292" width="1.99854" height="1.97629" rx="0.496387" transform="matrix(0.787714 0.616041 -0.644705 0.764432 17.4766 15.7159)" stroke="#1E1E1E" stroke-width="0.887076"/>
</g>
</g>
</g>
</svg>
