<svg width="25" height="24" viewBox="0 0 25 24" fill="none" xmlns="http://www.w3.org/2000/svg">
<rect width="24" height="24" rx="8" transform="matrix(-1 0 0 1 24.5 0)" fill="#605DE3" fill-opacity="0.2"/>
<path d="M10.1386 9.49091C10.6553 7.48337 12.4777 6 14.6465 6C17.2172 6 19.3011 8.08391 19.3011 10.6545C19.3011 12.704 17.9765 14.4441 16.1367 15.0654M10.1386 15.8171H11.1545M11.1545 15.8171H12.1M11.1545 15.8171V12.108C11.1545 12.108 10.4453 12.5956 9.99091 12.908M15.8091 14.1455C15.8091 16.7161 13.7252 18.8 11.1545 18.8C8.58391 18.8 6.5 16.7161 6.5 14.1455C6.5 11.5748 8.58391 9.49091 11.1545 9.49091C13.7252 9.49091 15.8091 11.5748 15.8091 14.1455Z" stroke="#605DE3" stroke-linecap="round" stroke-linejoin="round"/>
</svg>

