<svg xmlns="http://www.w3.org/2000/svg" viewBox="0 0 20 20" fill="none">
<path d="M4.43258 12.0867L3.73639 14.6857L1.1918 14.7396C0.431344 13.3291 0 11.7153 0 10.0004C0 8.34211 0.403296 6.7783 1.11817 5.40134H1.11871L3.38411 5.81666L4.37649 8.06847C4.16879 8.674 4.05558 9.32402 4.05558 10.0004C4.05566 10.7345 4.18863 11.4378 4.43258 12.0867Z" fill="#605DE3"/>
<path d="M19.8255 8.13205C19.9404 8.73699 20.0002 9.36174 20.0002 10.0002C20.0002 10.7162 19.925 11.4146 19.7816 12.0882C19.2947 14.3806 18.0227 16.3823 16.2606 17.7989L16.26 17.7983L13.4066 17.6527L13.0028 15.1318C14.1721 14.446 15.0858 13.3729 15.5672 12.0882H10.2197V8.13205H15.6452H19.8255Z" fill="#605DE3"/>
<path d="M16.2601 17.798L16.2606 17.7986C14.5469 19.1761 12.3698 20.0003 9.99997 20.0003C6.19159 20.0003 2.88049 17.8717 1.19141 14.7391L4.43219 12.0863C5.27671 14.3402 7.45097 15.9447 9.99997 15.9447C11.0956 15.9447 12.122 15.6485 13.0028 15.1315L16.2601 17.798Z" fill="#605DE3"/>
<path d="M16.3836 2.30198L13.1439 4.95427C12.2323 4.38448 11.1548 4.05533 10.0004 4.05533C7.39367 4.05533 5.17874 5.7334 4.37652 8.06813L1.11871 5.401H1.11816C2.78252 2.1921 6.13538 -0.000289917 10.0004 -0.000289917C12.4268 -0.000289917 14.6516 0.864038 16.3836 2.30198Z" fill="#605DE3"/>
</svg>