<svg width="38" height="38" viewBox="0 0 38 38" fill="none" xmlns="http://www.w3.org/2000/svg">
<path fill-rule="evenodd" clip-rule="evenodd" d="M0 3.04C0 1.36106 1.36105 0 3.04 0H34.96C36.6389 0 38 1.36105 38 3.04V34.96C38 36.6389 36.6389 38 34.96 38H11.7328C11.7326 37.9646 11.7324 37.9293 11.7324 37.894C11.7324 28.4739 21.8097 15.9783 21.8097 15.9783C21.8097 15.9783 20.4453 15.9725 18.9999 17C18.3431 17.4669 18.2111 17.8666 18.0925 18.2259C17.9913 18.5325 17.8997 18.8097 17.4999 19.074C17.1164 19.3275 16.592 19.3571 15.9932 19.3909C15.2362 19.4336 14.3603 19.483 13.4999 20C12.7264 20.4648 12.4551 21.0049 12.1982 21.5161C11.9433 22.0235 11.7027 22.5024 10.9999 22.8512C10.4275 23.1352 9.77492 23.0995 9.00901 23.0576C8.04223 23.0048 6.89482 22.942 5.4999 23.5C4.58624 23.8361 4.15059 24.2863 3.73561 24.715C3.069 25.4038 2.4557 26.0375 0 26.0552V3.04ZM30.738 7.26929C29.3713 5.90257 18.9999 11.5938 18.9999 11.5938C18.9999 11.5938 22.9416 11.8288 24.5601 13.4472C26.1785 15.0656 26.4134 19.0073 26.4134 19.0073C26.4134 19.0073 32.1047 8.63601 30.738 7.26929Z" fill="url(#paint0_linear_1618_433)"/>
<defs>
<linearGradient id="paint0_linear_1618_433" x1="38" y1="-1.93715e-06" x2="5.5" y2="30.5" gradientUnits="userSpaceOnUse">
<stop stop-color="#B0AEFF"/>
<stop offset="1" stop-color="#605DE3"/>
</linearGradient>
</defs>
</svg>
