<svg width="142" height="142" viewBox="0 0 142 142" fill="none" xmlns="http://www.w3.org/2000/svg">
<g filter="url(#filter0_b_1354_3498)">
<g filter="url(#filter1_b_1354_3498)">
<path d="M20.7107 20.7107C48.3249 -6.90355 93.0964 -6.90355 120.711 20.7107C148.325 48.3249 148.325 93.0964 120.711 120.711C93.0964 148.325 48.3249 148.325 20.7107 120.711C-6.90356 93.0964 -6.90356 48.3249 20.7107 20.7107Z" fill="#FAB02D" fill-opacity="0.12"/>
</g>
<g filter="url(#filter2_d_1354_3498)">
<circle cx="70.7109" cy="70.7109" r="48.5" stroke="#FAB02D" stroke-width="3" shape-rendering="crispEdges"/>
</g>
<g filter="url(#filter3_d_1354_3498)">
<circle cx="70.2109" cy="70.2109" r="42.5" fill="url(#paint0_radial_1354_3498)" fill-opacity="0.5" shape-rendering="crispEdges"/>
</g>
<path d="M68.6875 87.7109H45.6953V82.6719L53.7578 73.9766C54.7734 72.8828 55.6953 71.875 56.5234 70.9531C57.3516 70.0312 58.0625 69.1328 58.6562 68.2578C59.25 67.3828 59.7109 66.4922 60.0391 65.5859C60.3672 64.6797 60.5312 63.7031 60.5312 62.6562C60.5312 61.5 60.1797 60.6016 59.4766 59.9609C58.7891 59.3203 57.8594 59 56.6875 59C55.4531 59 54.2656 59.3047 53.125 59.9141C51.9844 60.5234 50.7891 61.3906 49.5391 62.5156L45.6016 57.8516C46.3047 57.2109 47.0391 56.6016 47.8047 56.0234C48.5703 55.4297 49.4141 54.9062 50.3359 54.4531C51.2578 54 52.2734 53.6406 53.3828 53.375C54.4922 53.0938 55.7344 52.9531 57.1094 52.9531C58.75 52.9531 60.2188 53.1797 61.5156 53.6328C62.8281 54.0859 63.9453 54.7344 64.8672 55.5781C65.7891 56.4062 66.4922 57.4141 66.9766 58.6016C67.4766 59.7891 67.7266 61.125 67.7266 62.6094C67.7266 63.9531 67.4922 65.2422 67.0234 66.4766C66.5547 67.6953 65.9141 68.8984 65.1016 70.0859C64.2891 71.2578 63.3438 72.4297 62.2656 73.6016C61.2031 74.7578 60.0625 75.9375 58.8438 77.1406L54.7188 81.2891V81.6172H68.6875V87.7109ZM89.3594 87.7109H82.1172V67.8828C82.1172 67.4766 82.1172 66.9922 82.1172 66.4297C82.1328 65.8516 82.1484 65.2578 82.1641 64.6484C82.1953 64.0234 82.2188 63.3984 82.2344 62.7734C82.2656 62.1484 82.2891 61.5781 82.3047 61.0625C82.2266 61.1562 82.0938 61.2969 81.9062 61.4844C81.7188 61.6719 81.5078 61.8828 81.2734 62.1172C81.0391 62.3359 80.7969 62.5625 80.5469 62.7969C80.2969 63.0312 80.0547 63.2422 79.8203 63.4297L75.8828 66.5938L72.3672 62.2344L83.4062 53.4453H89.3594V87.7109Z" fill="white"/>
</g>
<defs>
<filter id="filter0_b_1354_3498" x="-30" y="-30" width="201.421" height="201.421" filterUnits="userSpaceOnUse" color-interpolation-filters="sRGB">
<feFlood flood-opacity="0" result="BackgroundImageFix"/>
<feGaussianBlur in="BackgroundImageFix" stdDeviation="15"/>
<feComposite in2="SourceAlpha" operator="in" result="effect1_backgroundBlur_1354_3498"/>
<feBlend mode="normal" in="SourceGraphic" in2="effect1_backgroundBlur_1354_3498" result="shape"/>
</filter>
<filter id="filter1_b_1354_3498" x="-30" y="-30" width="201.421" height="201.421" filterUnits="userSpaceOnUse" color-interpolation-filters="sRGB">
<feFlood flood-opacity="0" result="BackgroundImageFix"/>
<feGaussianBlur in="BackgroundImageFix" stdDeviation="15"/>
<feComposite in2="SourceAlpha" operator="in" result="effect1_backgroundBlur_1354_3498"/>
<feBlend mode="normal" in="SourceGraphic" in2="effect1_backgroundBlur_1354_3498" result="shape"/>
</filter>
<filter id="filter2_d_1354_3498" x="16.7109" y="16.7109" width="108" height="108" filterUnits="userSpaceOnUse" color-interpolation-filters="sRGB">
<feFlood flood-opacity="0" result="BackgroundImageFix"/>
<feColorMatrix in="SourceAlpha" type="matrix" values="0 0 0 0 0 0 0 0 0 0 0 0 0 0 0 0 0 0 127 0" result="hardAlpha"/>
<feOffset/>
<feGaussianBlur stdDeviation="2"/>
<feComposite in2="hardAlpha" operator="out"/>
<feColorMatrix type="matrix" values="0 0 0 0 1 0 0 0 0 1 0 0 0 0 1 0 0 0 0.25 0"/>
<feBlend mode="normal" in2="BackgroundImageFix" result="effect1_dropShadow_1354_3498"/>
<feBlend mode="normal" in="SourceGraphic" in2="effect1_dropShadow_1354_3498" result="shape"/>
</filter>
<filter id="filter3_d_1354_3498" x="23.7109" y="23.7109" width="93" height="93" filterUnits="userSpaceOnUse" color-interpolation-filters="sRGB">
<feFlood flood-opacity="0" result="BackgroundImageFix"/>
<feColorMatrix in="SourceAlpha" type="matrix" values="0 0 0 0 0 0 0 0 0 0 0 0 0 0 0 0 0 0 127 0" result="hardAlpha"/>
<feOffset/>
<feGaussianBlur stdDeviation="2"/>
<feComposite in2="hardAlpha" operator="out"/>
<feColorMatrix type="matrix" values="0 0 0 0 1 0 0 0 0 1 0 0 0 0 1 0 0 0 0.25 0"/>
<feBlend mode="normal" in2="BackgroundImageFix" result="effect1_dropShadow_1354_3498"/>
<feBlend mode="normal" in="SourceGraphic" in2="effect1_dropShadow_1354_3498" result="shape"/>
</filter>
<radialGradient id="paint0_radial_1354_3498" cx="0" cy="0" r="1" gradientUnits="userSpaceOnUse" gradientTransform="translate(70.2109 70.2109) rotate(90) scale(42.5)">
<stop stop-color="white"/>
<stop offset="1" stop-color="white" stop-opacity="0"/>
</radialGradient>
</defs>
</svg>
