<svg width="142" height="142" viewBox="0 0 142 142" fill="none" xmlns="http://www.w3.org/2000/svg">
<g filter="url(#filter0_b_1352_3343)">
<g filter="url(#filter1_b_1352_3343)">
<path d="M20.7107 20.7107C48.3249 -6.90355 93.0964 -6.90355 120.711 20.7107C148.325 48.3249 148.325 93.0964 120.711 120.711C93.0964 148.325 48.3249 148.325 20.7107 120.711C-6.90356 93.0964 -6.90356 48.3249 20.7107 20.7107Z" fill="#FAB02D" fill-opacity="0.12"/>
</g>
<g filter="url(#filter2_d_1352_3343)">
<circle cx="70.7109" cy="70.7109" r="48.5" stroke="#FAB02D" stroke-width="3" shape-rendering="crispEdges"/>
</g>
<g filter="url(#filter3_d_1352_3343)">
<circle cx="70.2109" cy="70.2109" r="42.5" fill="url(#paint0_radial_1352_3343)" fill-opacity="0.5" shape-rendering="crispEdges"/>
</g>
<path d="M68.6875 87.7109H45.6953V82.6719L53.7578 73.9766C54.7734 72.8828 55.6953 71.875 56.5234 70.9531C57.3516 70.0312 58.0625 69.1328 58.6562 68.2578C59.25 67.3828 59.7109 66.4922 60.0391 65.5859C60.3672 64.6797 60.5312 63.7031 60.5312 62.6562C60.5312 61.5 60.1797 60.6016 59.4766 59.9609C58.7891 59.3203 57.8594 59 56.6875 59C55.4531 59 54.2656 59.3047 53.125 59.9141C51.9844 60.5234 50.7891 61.3906 49.5391 62.5156L45.6016 57.8516C46.3047 57.2109 47.0391 56.6016 47.8047 56.0234C48.5703 55.4297 49.4141 54.9062 50.3359 54.4531C51.2578 54 52.2734 53.6406 53.3828 53.375C54.4922 53.0938 55.7344 52.9531 57.1094 52.9531C58.75 52.9531 60.2188 53.1797 61.5156 53.6328C62.8281 54.0859 63.9453 54.7344 64.8672 55.5781C65.7891 56.4062 66.4922 57.4141 66.9766 58.6016C67.4766 59.7891 67.7266 61.125 67.7266 62.6094C67.7266 63.9531 67.4922 65.2422 67.0234 66.4766C66.5547 67.6953 65.9141 68.8984 65.1016 70.0859C64.2891 71.2578 63.3438 72.4297 62.2656 73.6016C61.2031 74.7578 60.0625 75.9375 58.8438 77.1406L54.7188 81.2891V81.6172H68.6875V87.7109ZM95.1719 70.5781C95.1719 73.3438 94.9531 75.8125 94.5156 77.9844C94.0938 80.1562 93.4062 82 92.4531 83.5156C91.5156 85.0312 90.2969 86.1875 88.7969 86.9844C87.3125 87.7812 85.5156 88.1797 83.4062 88.1797C81.4219 88.1797 79.6953 87.7812 78.2266 86.9844C76.7578 86.1875 75.5391 85.0312 74.5703 83.5156C73.6016 82 72.875 80.1562 72.3906 77.9844C71.9219 75.8125 71.6875 73.3438 71.6875 70.5781C71.6875 67.8125 71.8984 65.3359 72.3203 63.1484C72.7578 60.9609 73.4453 59.1094 74.3828 57.5938C75.3203 56.0781 76.5312 54.9219 78.0156 54.125C79.5 53.3125 81.2969 52.9062 83.4062 52.9062C85.375 52.9062 87.0938 53.3047 88.5625 54.1016C90.0312 54.8984 91.2578 56.0547 92.2422 57.5703C93.2266 59.0859 93.9609 60.9375 94.4453 63.125C94.9297 65.3125 95.1719 67.7969 95.1719 70.5781ZM78.9062 70.5781C78.9062 74.4844 79.2422 77.4219 79.9141 79.3906C80.5859 81.3594 81.75 82.3438 83.4062 82.3438C85.0312 82.3438 86.1953 81.3672 86.8984 79.4141C87.6172 77.4609 87.9766 74.5156 87.9766 70.5781C87.9766 66.6562 87.6172 63.7109 86.8984 61.7422C86.1953 59.7578 85.0312 58.7656 83.4062 58.7656C82.5781 58.7656 81.875 59.0156 81.2969 59.5156C80.7344 60.0156 80.2734 60.7578 79.9141 61.7422C79.5547 62.7266 79.2969 63.9609 79.1406 65.4453C78.9844 66.9141 78.9062 68.625 78.9062 70.5781Z" fill="white"/>
</g>
<defs>
<filter id="filter0_b_1352_3343" x="-30" y="-30" width="201.421" height="201.421" filterUnits="userSpaceOnUse" color-interpolation-filters="sRGB">
<feFlood flood-opacity="0" result="BackgroundImageFix"/>
<feGaussianBlur in="BackgroundImageFix" stdDeviation="15"/>
<feComposite in2="SourceAlpha" operator="in" result="effect1_backgroundBlur_1352_3343"/>
<feBlend mode="normal" in="SourceGraphic" in2="effect1_backgroundBlur_1352_3343" result="shape"/>
</filter>
<filter id="filter1_b_1352_3343" x="-30" y="-30" width="201.421" height="201.421" filterUnits="userSpaceOnUse" color-interpolation-filters="sRGB">
<feFlood flood-opacity="0" result="BackgroundImageFix"/>
<feGaussianBlur in="BackgroundImageFix" stdDeviation="15"/>
<feComposite in2="SourceAlpha" operator="in" result="effect1_backgroundBlur_1352_3343"/>
<feBlend mode="normal" in="SourceGraphic" in2="effect1_backgroundBlur_1352_3343" result="shape"/>
</filter>
<filter id="filter2_d_1352_3343" x="16.7109" y="16.7109" width="108" height="108" filterUnits="userSpaceOnUse" color-interpolation-filters="sRGB">
<feFlood flood-opacity="0" result="BackgroundImageFix"/>
<feColorMatrix in="SourceAlpha" type="matrix" values="0 0 0 0 0 0 0 0 0 0 0 0 0 0 0 0 0 0 127 0" result="hardAlpha"/>
<feOffset/>
<feGaussianBlur stdDeviation="2"/>
<feComposite in2="hardAlpha" operator="out"/>
<feColorMatrix type="matrix" values="0 0 0 0 1 0 0 0 0 1 0 0 0 0 1 0 0 0 0.25 0"/>
<feBlend mode="normal" in2="BackgroundImageFix" result="effect1_dropShadow_1352_3343"/>
<feBlend mode="normal" in="SourceGraphic" in2="effect1_dropShadow_1352_3343" result="shape"/>
</filter>
<filter id="filter3_d_1352_3343" x="23.7109" y="23.7109" width="93" height="93" filterUnits="userSpaceOnUse" color-interpolation-filters="sRGB">
<feFlood flood-opacity="0" result="BackgroundImageFix"/>
<feColorMatrix in="SourceAlpha" type="matrix" values="0 0 0 0 0 0 0 0 0 0 0 0 0 0 0 0 0 0 127 0" result="hardAlpha"/>
<feOffset/>
<feGaussianBlur stdDeviation="2"/>
<feComposite in2="hardAlpha" operator="out"/>
<feColorMatrix type="matrix" values="0 0 0 0 1 0 0 0 0 1 0 0 0 0 1 0 0 0 0.25 0"/>
<feBlend mode="normal" in2="BackgroundImageFix" result="effect1_dropShadow_1352_3343"/>
<feBlend mode="normal" in="SourceGraphic" in2="effect1_dropShadow_1352_3343" result="shape"/>
</filter>
<radialGradient id="paint0_radial_1352_3343" cx="0" cy="0" r="1" gradientUnits="userSpaceOnUse" gradientTransform="translate(70.2109 70.2109) rotate(90) scale(42.5)">
<stop stop-color="white"/>
<stop offset="1" stop-color="white" stop-opacity="0"/>
</radialGradient>
</defs>
</svg>
