<svg width="142" height="142" viewBox="0 0 142 142" fill="none" xmlns="http://www.w3.org/2000/svg">
<g filter="url(#filter0_b_1354_3479)">
<g filter="url(#filter1_b_1354_3479)">
<path d="M20.7107 20.7107C48.3249 -6.90355 93.0964 -6.90355 120.711 20.7107C148.325 48.3249 148.325 93.0964 120.711 120.711C93.0964 148.325 48.3249 148.325 20.7107 120.711C-6.90356 93.0964 -6.90356 48.3249 20.7107 20.7107Z" fill="#FAB02D" fill-opacity="0.12"/>
</g>
<g filter="url(#filter2_d_1354_3479)">
<circle cx="70.7109" cy="70.7109" r="48.5" stroke="#FAB02D" stroke-width="3" shape-rendering="crispEdges"/>
</g>
<g filter="url(#filter3_d_1354_3479)">
<circle cx="70.2109" cy="70.2109" r="42.5" fill="url(#paint0_radial_1354_3479)" fill-opacity="0.5" shape-rendering="crispEdges"/>
</g>
<path d="M62.9219 87.7109H55.6797V67.8828C55.6797 67.4766 55.6797 66.9922 55.6797 66.4297C55.6953 65.8516 55.7109 65.2578 55.7266 64.6484C55.7578 64.0234 55.7812 63.3984 55.7969 62.7734C55.8281 62.1484 55.8516 61.5781 55.8672 61.0625C55.7891 61.1562 55.6562 61.2969 55.4688 61.4844C55.2812 61.6719 55.0703 61.8828 54.8359 62.1172C54.6016 62.3359 54.3594 62.5625 54.1094 62.7969C53.8594 63.0312 53.6172 63.2422 53.3828 63.4297L49.4453 66.5938L45.9297 62.2344L56.9688 53.4453H62.9219V87.7109ZM75.0625 87.7109L87.25 59.5859H71.5V53.4922H95.125V58.0391L82.6328 87.7109H75.0625Z" fill="white"/>
</g>
<defs>
<filter id="filter0_b_1354_3479" x="-30" y="-30" width="201.421" height="201.421" filterUnits="userSpaceOnUse" color-interpolation-filters="sRGB">
<feFlood flood-opacity="0" result="BackgroundImageFix"/>
<feGaussianBlur in="BackgroundImageFix" stdDeviation="15"/>
<feComposite in2="SourceAlpha" operator="in" result="effect1_backgroundBlur_1354_3479"/>
<feBlend mode="normal" in="SourceGraphic" in2="effect1_backgroundBlur_1354_3479" result="shape"/>
</filter>
<filter id="filter1_b_1354_3479" x="-30" y="-30" width="201.421" height="201.421" filterUnits="userSpaceOnUse" color-interpolation-filters="sRGB">
<feFlood flood-opacity="0" result="BackgroundImageFix"/>
<feGaussianBlur in="BackgroundImageFix" stdDeviation="15"/>
<feComposite in2="SourceAlpha" operator="in" result="effect1_backgroundBlur_1354_3479"/>
<feBlend mode="normal" in="SourceGraphic" in2="effect1_backgroundBlur_1354_3479" result="shape"/>
</filter>
<filter id="filter2_d_1354_3479" x="16.7109" y="16.7109" width="108" height="108" filterUnits="userSpaceOnUse" color-interpolation-filters="sRGB">
<feFlood flood-opacity="0" result="BackgroundImageFix"/>
<feColorMatrix in="SourceAlpha" type="matrix" values="0 0 0 0 0 0 0 0 0 0 0 0 0 0 0 0 0 0 127 0" result="hardAlpha"/>
<feOffset/>
<feGaussianBlur stdDeviation="2"/>
<feComposite in2="hardAlpha" operator="out"/>
<feColorMatrix type="matrix" values="0 0 0 0 1 0 0 0 0 1 0 0 0 0 1 0 0 0 0.25 0"/>
<feBlend mode="normal" in2="BackgroundImageFix" result="effect1_dropShadow_1354_3479"/>
<feBlend mode="normal" in="SourceGraphic" in2="effect1_dropShadow_1354_3479" result="shape"/>
</filter>
<filter id="filter3_d_1354_3479" x="23.7109" y="23.7109" width="93" height="93" filterUnits="userSpaceOnUse" color-interpolation-filters="sRGB">
<feFlood flood-opacity="0" result="BackgroundImageFix"/>
<feColorMatrix in="SourceAlpha" type="matrix" values="0 0 0 0 0 0 0 0 0 0 0 0 0 0 0 0 0 0 127 0" result="hardAlpha"/>
<feOffset/>
<feGaussianBlur stdDeviation="2"/>
<feComposite in2="hardAlpha" operator="out"/>
<feColorMatrix type="matrix" values="0 0 0 0 1 0 0 0 0 1 0 0 0 0 1 0 0 0 0.25 0"/>
<feBlend mode="normal" in2="BackgroundImageFix" result="effect1_dropShadow_1354_3479"/>
<feBlend mode="normal" in="SourceGraphic" in2="effect1_dropShadow_1354_3479" result="shape"/>
</filter>
<radialGradient id="paint0_radial_1354_3479" cx="0" cy="0" r="1" gradientUnits="userSpaceOnUse" gradientTransform="translate(70.2109 70.2109) rotate(90) scale(42.5)">
<stop stop-color="white"/>
<stop offset="1" stop-color="white" stop-opacity="0"/>
</radialGradient>
</defs>
</svg>
