<svg width="142" height="142" viewBox="0 0 142 142" fill="none" xmlns="http://www.w3.org/2000/svg">
<g opacity="0.4" filter="url(#filter0_b_1350_2107)">
<g filter="url(#filter1_b_1350_2107)">
<path d="M20.7107 20.7107C48.3249 -6.90355 93.0964 -6.90355 120.711 20.7107C148.325 48.3249 148.325 93.0964 120.711 120.711C93.0964 148.325 48.3249 148.325 20.7107 120.711C-6.90356 93.0964 -6.90356 48.3249 20.7107 20.7107Z" fill="#FAB02D" fill-opacity="0.12"/>
</g>
<g filter="url(#filter2_d_1350_2107)">
<circle cx="70.7109" cy="70.7109" r="48.5" stroke="#FAB02D" stroke-width="3" shape-rendering="crispEdges"/>
</g>
<g filter="url(#filter3_d_1350_2107)">
<circle cx="70.2109" cy="70.2109" r="42.5" fill="url(#paint0_radial_1350_2107)" fill-opacity="0.5" shape-rendering="crispEdges"/>
</g>
<path d="M62.9219 87.7109H55.6797V67.8828C55.6797 67.4766 55.6797 66.9922 55.6797 66.4297C55.6953 65.8516 55.7109 65.2578 55.7266 64.6484C55.7578 64.0234 55.7812 63.3984 55.7969 62.7734C55.8281 62.1484 55.8516 61.5781 55.8672 61.0625C55.7891 61.1562 55.6562 61.2969 55.4688 61.4844C55.2812 61.6719 55.0703 61.8828 54.8359 62.1172C54.6016 62.3359 54.3594 62.5625 54.1094 62.7969C53.8594 63.0312 53.6172 63.2422 53.3828 63.4297L49.4453 66.5938L45.9297 62.2344L56.9688 53.4453H62.9219V87.7109ZM71.9922 73.1562C71.9922 71.5156 72.0781 69.8828 72.25 68.2578C72.4375 66.6328 72.7578 65.0781 73.2109 63.5938C73.6797 62.0938 74.3047 60.7031 75.0859 59.4219C75.8828 58.1406 76.8828 57.0312 78.0859 56.0938C79.3047 55.1406 80.7578 54.3984 82.4453 53.8672C84.1484 53.3203 86.1328 53.0469 88.3984 53.0469C88.7266 53.0469 89.0859 53.0547 89.4766 53.0703C89.8672 53.0859 90.2578 53.1094 90.6484 53.1406C91.0547 53.1562 91.4453 53.1875 91.8203 53.2344C92.1953 53.2812 92.5312 53.3359 92.8281 53.3984V59.1875C92.2344 59.0469 91.6016 58.9375 90.9297 58.8594C90.2734 58.7656 89.6094 58.7188 88.9375 58.7188C86.8281 58.7188 85.0938 58.9844 83.7344 59.5156C82.375 60.0312 81.2969 60.7578 80.5 61.6953C79.7031 62.6328 79.1328 63.7578 78.7891 65.0703C78.4609 66.3828 78.2578 67.8359 78.1797 69.4297H78.4609C78.7734 68.8672 79.1484 68.3438 79.5859 67.8594C80.0391 67.3594 80.5625 66.9375 81.1562 66.5938C81.75 66.2344 82.4141 65.9531 83.1484 65.75C83.8984 65.5469 84.7344 65.4453 85.6562 65.4453C87.1406 65.4453 88.4766 65.6875 89.6641 66.1719C90.8516 66.6562 91.8516 67.3594 92.6641 68.2812C93.4922 69.2031 94.125 70.3359 94.5625 71.6797C95 73.0234 95.2188 74.5625 95.2188 76.2969C95.2188 78.1562 94.9531 79.8203 94.4219 81.2891C93.9062 82.7578 93.1641 84.0078 92.1953 85.0391C91.2266 86.0547 90.0547 86.8359 88.6797 87.3828C87.3047 87.9141 85.7578 88.1797 84.0391 88.1797C82.3516 88.1797 80.7734 87.8828 79.3047 87.2891C77.8359 86.6797 76.5547 85.7578 75.4609 84.5234C74.3828 83.2891 73.5312 81.7344 72.9062 79.8594C72.2969 77.9688 71.9922 75.7344 71.9922 73.1562ZM83.8984 82.3906C84.5391 82.3906 85.1172 82.2734 85.6328 82.0391C86.1641 81.7891 86.6172 81.4219 86.9922 80.9375C87.3828 80.4375 87.6797 79.8125 87.8828 79.0625C88.1016 78.3125 88.2109 77.4219 88.2109 76.3906C88.2109 74.7188 87.8594 73.4062 87.1562 72.4531C86.4688 71.4844 85.4141 71 83.9922 71C83.2734 71 82.6172 71.1406 82.0234 71.4219C81.4297 71.7031 80.9219 72.0703 80.5 72.5234C80.0781 72.9766 79.75 73.4844 79.5156 74.0469C79.2969 74.6094 79.1875 75.1797 79.1875 75.7578C79.1875 76.5547 79.2812 77.3516 79.4688 78.1484C79.6719 78.9297 79.9688 79.6406 80.3594 80.2812C80.7656 80.9062 81.2578 81.4141 81.8359 81.8047C82.4297 82.1953 83.1172 82.3906 83.8984 82.3906Z" fill="white"/>
</g>
<defs>
<filter id="filter0_b_1350_2107" x="-30" y="-30" width="201.421" height="201.421" filterUnits="userSpaceOnUse" color-interpolation-filters="sRGB">
<feFlood flood-opacity="0" result="BackgroundImageFix"/>
<feGaussianBlur in="BackgroundImageFix" stdDeviation="15"/>
<feComposite in2="SourceAlpha" operator="in" result="effect1_backgroundBlur_1350_2107"/>
<feBlend mode="normal" in="SourceGraphic" in2="effect1_backgroundBlur_1350_2107" result="shape"/>
</filter>
<filter id="filter1_b_1350_2107" x="-30" y="-30" width="201.421" height="201.421" filterUnits="userSpaceOnUse" color-interpolation-filters="sRGB">
<feFlood flood-opacity="0" result="BackgroundImageFix"/>
<feGaussianBlur in="BackgroundImageFix" stdDeviation="15"/>
<feComposite in2="SourceAlpha" operator="in" result="effect1_backgroundBlur_1350_2107"/>
<feBlend mode="normal" in="SourceGraphic" in2="effect1_backgroundBlur_1350_2107" result="shape"/>
</filter>
<filter id="filter2_d_1350_2107" x="16.7109" y="16.7109" width="108" height="108" filterUnits="userSpaceOnUse" color-interpolation-filters="sRGB">
<feFlood flood-opacity="0" result="BackgroundImageFix"/>
<feColorMatrix in="SourceAlpha" type="matrix" values="0 0 0 0 0 0 0 0 0 0 0 0 0 0 0 0 0 0 127 0" result="hardAlpha"/>
<feOffset/>
<feGaussianBlur stdDeviation="2"/>
<feComposite in2="hardAlpha" operator="out"/>
<feColorMatrix type="matrix" values="0 0 0 0 1 0 0 0 0 1 0 0 0 0 1 0 0 0 0.25 0"/>
<feBlend mode="normal" in2="BackgroundImageFix" result="effect1_dropShadow_1350_2107"/>
<feBlend mode="normal" in="SourceGraphic" in2="effect1_dropShadow_1350_2107" result="shape"/>
</filter>
<filter id="filter3_d_1350_2107" x="23.7109" y="23.7109" width="93" height="93" filterUnits="userSpaceOnUse" color-interpolation-filters="sRGB">
<feFlood flood-opacity="0" result="BackgroundImageFix"/>
<feColorMatrix in="SourceAlpha" type="matrix" values="0 0 0 0 0 0 0 0 0 0 0 0 0 0 0 0 0 0 127 0" result="hardAlpha"/>
<feOffset/>
<feGaussianBlur stdDeviation="2"/>
<feComposite in2="hardAlpha" operator="out"/>
<feColorMatrix type="matrix" values="0 0 0 0 1 0 0 0 0 1 0 0 0 0 1 0 0 0 0.25 0"/>
<feBlend mode="normal" in2="BackgroundImageFix" result="effect1_dropShadow_1350_2107"/>
<feBlend mode="normal" in="SourceGraphic" in2="effect1_dropShadow_1350_2107" result="shape"/>
</filter>
<radialGradient id="paint0_radial_1350_2107" cx="0" cy="0" r="1" gradientUnits="userSpaceOnUse" gradientTransform="translate(70.2109 70.2109) rotate(90) scale(42.5)">
<stop stop-color="white"/>
<stop offset="1" stop-color="white" stop-opacity="0"/>
</radialGradient>
</defs>
</svg>
