<svg width="142" height="142" viewBox="0 0 142 142" fill="none" xmlns="http://www.w3.org/2000/svg">
<g filter="url(#filter0_b_1352_3343)">
<g filter="url(#filter1_b_1352_3343)">
<path d="M20.7107 20.7107C48.3249 -6.90355 93.0964 -6.90355 120.711 20.7107C148.325 48.3249 148.325 93.0964 120.711 120.711C93.0964 148.325 48.3249 148.325 20.7107 120.711C-6.90356 93.0964 -6.90356 48.3249 20.7107 20.7107Z" fill="#FAB02D" fill-opacity="0.12"/>
</g>
<g filter="url(#filter2_d_1352_3343)">
<circle cx="70.7109" cy="70.7109" r="48.5" stroke="#FAB02D" stroke-width="3" shape-rendering="crispEdges"/>
</g>
<g filter="url(#filter3_d_1352_3343)">
<circle cx="70.2109" cy="70.2109" r="42.5" fill="url(#paint0_radial_1352_3343)" fill-opacity="0.5" shape-rendering="crispEdges"/>
</g>
<path d="M62.9219 87.7109H55.6797V67.8828C55.6797 67.4766 55.6797 66.9922 55.6797 66.4297C55.6953 65.8516 55.7109 65.2578 55.7266 64.6484C55.7578 64.0234 55.7812 63.3984 55.7969 62.7734C55.8281 62.1484 55.8516 61.5781 55.8672 61.0625C55.7891 61.1562 55.6562 61.2969 55.4688 61.4844C55.2812 61.6719 55.0703 61.8828 54.8359 62.1172C54.6016 62.3359 54.3594 62.5625 54.1094 62.7969C53.8594 63.0312 53.6172 63.2422 53.3828 63.4297L49.4453 66.5938L45.9297 62.2344L56.9688 53.4453H62.9219V87.7109ZM83.4531 53C84.875 53 86.2188 53.1719 87.4844 53.5156C88.75 53.8594 89.8594 54.375 90.8125 55.0625C91.7656 55.75 92.5234 56.6094 93.0859 57.6406C93.6484 58.6719 93.9297 59.8828 93.9297 61.2734C93.9297 62.3047 93.7734 63.2422 93.4609 64.0859C93.1484 64.9141 92.7188 65.6719 92.1719 66.3594C91.625 67.0312 90.9766 67.6328 90.2266 68.1641C89.4766 68.6953 88.6641 69.1797 87.7891 69.6172C88.6953 70.1016 89.5781 70.6406 90.4375 71.2344C91.3125 71.8281 92.0859 72.5 92.7578 73.25C93.4297 73.9844 93.9688 74.8125 94.375 75.7344C94.7812 76.6562 94.9844 77.6875 94.9844 78.8281C94.9844 80.25 94.7031 81.5391 94.1406 82.6953C93.5781 83.8516 92.7891 84.8359 91.7734 85.6484C90.7578 86.4609 89.5391 87.0859 88.1172 87.5234C86.7109 87.9609 85.1562 88.1797 83.4531 88.1797C81.6094 88.1797 79.9688 87.9688 78.5312 87.5469C77.0938 87.125 75.8828 86.5234 74.8984 85.7422C73.9141 84.9609 73.1641 84 72.6484 82.8594C72.1484 81.7188 71.8984 80.4375 71.8984 79.0156C71.8984 77.8438 72.0703 76.7891 72.4141 75.8516C72.7578 74.9141 73.2266 74.0703 73.8203 73.3203C74.4141 72.5703 75.1094 71.9062 75.9062 71.3281C76.7031 70.75 77.5547 70.2422 78.4609 69.8047C77.6953 69.3203 76.9766 68.7969 76.3047 68.2344C75.6328 67.6562 75.0469 67.0234 74.5469 66.3359C74.0625 65.6328 73.6719 64.8594 73.375 64.0156C73.0938 63.1719 72.9531 62.2422 72.9531 61.2266C72.9531 59.8672 73.2344 58.6797 73.7969 57.6641C74.375 56.6328 75.1484 55.7734 76.1172 55.0859C77.0859 54.3828 78.2031 53.8594 79.4688 53.5156C80.7344 53.1719 82.0625 53 83.4531 53ZM78.6016 78.5938C78.6016 79.2188 78.7031 79.7969 78.9062 80.3281C79.1094 80.8438 79.4062 81.2891 79.7969 81.6641C80.2031 82.0391 80.7031 82.3359 81.2969 82.5547C81.8906 82.7578 82.5781 82.8594 83.3594 82.8594C85 82.8594 86.2266 82.4766 87.0391 81.7109C87.8516 80.9297 88.2578 79.9062 88.2578 78.6406C88.2578 77.9844 88.1172 77.3984 87.8359 76.8828C87.5703 76.3516 87.2188 75.8672 86.7812 75.4297C86.3594 74.9766 85.875 74.5625 85.3281 74.1875C84.7812 73.8125 84.2344 73.4531 83.6875 73.1094L83.1719 72.7812C82.4844 73.125 81.8594 73.5 81.2969 73.9062C80.7344 74.2969 80.25 74.7344 79.8438 75.2188C79.4531 75.6875 79.1484 76.2031 78.9297 76.7656C78.7109 77.3281 78.6016 77.9375 78.6016 78.5938ZM83.4062 58.2969C82.8906 58.2969 82.4062 58.375 81.9531 58.5312C81.5156 58.6875 81.1328 58.9141 80.8047 59.2109C80.4922 59.5078 80.2422 59.875 80.0547 60.3125C79.8672 60.75 79.7734 61.2422 79.7734 61.7891C79.7734 62.4453 79.8672 63.0156 80.0547 63.5C80.2578 63.9688 80.5234 64.3906 80.8516 64.7656C81.1953 65.125 81.5859 65.4531 82.0234 65.75C82.4766 66.0312 82.9531 66.3125 83.4531 66.5938C83.9375 66.3438 84.3984 66.0703 84.8359 65.7734C85.2734 65.4766 85.6562 65.1406 85.9844 64.7656C86.3281 64.375 86.6016 63.9375 86.8047 63.4531C87.0078 62.9688 87.1094 62.4141 87.1094 61.7891C87.1094 61.2422 87.0156 60.75 86.8281 60.3125C86.6406 59.875 86.3828 59.5078 86.0547 59.2109C85.7266 58.9141 85.3359 58.6875 84.8828 58.5312C84.4297 58.375 83.9375 58.2969 83.4062 58.2969Z" fill="white"/>
</g>
<defs>
<filter id="filter0_b_1352_3343" x="-30" y="-30" width="201.421" height="201.421" filterUnits="userSpaceOnUse" color-interpolation-filters="sRGB">
<feFlood flood-opacity="0" result="BackgroundImageFix"/>
<feGaussianBlur in="BackgroundImageFix" stdDeviation="15"/>
<feComposite in2="SourceAlpha" operator="in" result="effect1_backgroundBlur_1352_3343"/>
<feBlend mode="normal" in="SourceGraphic" in2="effect1_backgroundBlur_1352_3343" result="shape"/>
</filter>
<filter id="filter1_b_1352_3343" x="-30" y="-30" width="201.421" height="201.421" filterUnits="userSpaceOnUse" color-interpolation-filters="sRGB">
<feFlood flood-opacity="0" result="BackgroundImageFix"/>
<feGaussianBlur in="BackgroundImageFix" stdDeviation="15"/>
<feComposite in2="SourceAlpha" operator="in" result="effect1_backgroundBlur_1352_3343"/>
<feBlend mode="normal" in="SourceGraphic" in2="effect1_backgroundBlur_1352_3343" result="shape"/>
</filter>
<filter id="filter2_d_1352_3343" x="16.7109" y="16.7109" width="108" height="108" filterUnits="userSpaceOnUse" color-interpolation-filters="sRGB">
<feFlood flood-opacity="0" result="BackgroundImageFix"/>
<feColorMatrix in="SourceAlpha" type="matrix" values="0 0 0 0 0 0 0 0 0 0 0 0 0 0 0 0 0 0 127 0" result="hardAlpha"/>
<feOffset/>
<feGaussianBlur stdDeviation="2"/>
<feComposite in2="hardAlpha" operator="out"/>
<feColorMatrix type="matrix" values="0 0 0 0 1 0 0 0 0 1 0 0 0 0 1 0 0 0 0.25 0"/>
<feBlend mode="normal" in2="BackgroundImageFix" result="effect1_dropShadow_1352_3343"/>
<feBlend mode="normal" in="SourceGraphic" in2="effect1_dropShadow_1352_3343" result="shape"/>
</filter>
<filter id="filter3_d_1352_3343" x="23.7109" y="23.7109" width="93" height="93" filterUnits="userSpaceOnUse" color-interpolation-filters="sRGB">
<feFlood flood-opacity="0" result="BackgroundImageFix"/>
<feColorMatrix in="SourceAlpha" type="matrix" values="0 0 0 0 0 0 0 0 0 0 0 0 0 0 0 0 0 0 127 0" result="hardAlpha"/>
<feOffset/>
<feGaussianBlur stdDeviation="2"/>
<feComposite in2="hardAlpha" operator="out"/>
<feColorMatrix type="matrix" values="0 0 0 0 1 0 0 0 0 1 0 0 0 0 1 0 0 0 0.25 0"/>
<feBlend mode="normal" in2="BackgroundImageFix" result="effect1_dropShadow_1352_3343"/>
<feBlend mode="normal" in="SourceGraphic" in2="effect1_dropShadow_1352_3343" result="shape"/>
</filter>
<radialGradient id="paint0_radial_1352_3343" cx="0" cy="0" r="1" gradientUnits="userSpaceOnUse" gradientTransform="translate(70.2109 70.2109) rotate(90) scale(42.5)">
<stop stop-color="white"/>
<stop offset="1" stop-color="white" stop-opacity="0"/>
</radialGradient>
</defs>
</svg>
