<svg
    xmlns="http://www.w3.org/2000/svg"
    className="w-6 h-6 mr-2"
    viewBox="0 0 22 22"
    fill="none"
>
    <path
        d="M10.0833 13.75H11.9166V15.5833H10.0833V13.75ZM10.0833 6.41667H11.9166V11.9167H10.0833V6.41667ZM10.9908 1.83333C5.93081 1.83333 1.83331 5.94 1.83331 11C1.83331 16.06 5.93081 20.1667 10.9908 20.1667C16.06 20.1667 20.1666 16.06 20.1666 11C20.1666 5.94 16.06 1.83333 10.9908 1.83333ZM11 18.3333C6.94831 18.3333 3.66665 15.0517 3.66665 11C3.66665 6.94833 6.94831 3.66667 11 3.66667C15.0516 3.66667 18.3333 6.94833 18.3333 11C18.3333 15.0517 15.0516 18.3333 11 18.3333Z"
        fill="#D32F2F"
    />
</svg>